<?xml version="1.0" encoding="iso-8859-1"?>
<!-- Uploaded to: SVG Repo, www.svgrepo.com, Generator: SVG Repo Mixer Tools -->
<svg fill="#000000" height="800px" width="800px" version="1.1" id="Layer_1" xmlns="http://www.w3.org/2000/svg" xmlns:xlink="http://www.w3.org/1999/xlink" 
	 viewBox="0 0 512 512" xml:space="preserve">
<g>
	<g>
		<path d="M502.272,33.191L478.809,9.729c-12.967-12.969-33.961-12.973-46.93-0.001c-3.104,3.104-91.603,91.603-99.193,99.193
			c-45.369-21.54-99.354-17.97-134.784,17.459c-10.591,10.592-18.53,23.372-23.705,38.127
			c-49.372-4.796-95.672,10.855-128.815,43.999c-64.159,64.158-60.324,174.324,11.733,246.379
			c72.063,72.064,182.222,75.89,246.379,11.732c33.146-33.146,48.792-79.442,43.999-128.814
			c14.756-5.174,27.535-13.113,38.127-23.707c35.536-35.536,38.925-89.571,17.459-134.783c4.515-4.515,90.937-90.937,99.192-99.192
			C515.241,67.154,515.244,46.16,502.272,33.191z M362.156,290.632c-9.401,9.401-21.676,15.746-36.48,18.857
			c-8.778,1.846-14.5,10.335-12.919,19.164c7.897,44.071-4.033,85.804-32.727,114.5c-51.006,51.006-140.24,47.479-199.451-11.732
			c-59.234-59.235-62.716-148.466-11.733-199.45c28.695-28.694,70.429-40.62,114.5-32.727c8.826,1.581,17.318-4.139,19.164-12.919
			c3.113-14.807,9.457-27.079,18.857-36.48c21.016-21.014,54.264-26.454,85.929-15.535l-90.098,90.098
			c-16.158,0.996-31.213,7.749-42.76,19.295c-25.937,25.936-25.941,67.917,0,93.859c25.876,25.877,67.981,25.878,93.858,0
			c11.547-11.547,18.3-26.603,19.295-42.76l90.098-90.098C388.61,236.368,383.17,269.618,362.156,290.632z M244.832,314.098
			c-12.937,12.936-33.991,12.938-46.929,0c-12.968-12.969-12.972-33.96,0-46.93c12.966-12.968,33.958-12.972,46.929,0
			C257.8,280.135,257.803,301.125,244.832,314.098z M278.553,256.913c-2.816-4.757-6.244-9.196-10.256-13.208
			s-8.451-7.44-13.208-10.256L408.414,80.121l23.464,23.464L278.553,256.913z M455.343,80.121l-23.464-23.464l23.464-23.464
			l23.465,23.464L455.343,80.121z"/>
	</g>
</g>
<g>
	<g>
		<path d="M174.437,384.492l-46.929-46.93c-6.479-6.48-16.984-6.48-23.465,0c-6.48,6.479-6.48,16.985,0,23.464l46.929,46.93
			c6.478,6.479,16.984,6.481,23.464,0C180.917,401.478,180.917,390.972,174.437,384.492z"/>
	</g>
</g>
</svg>